REM MD5 56d5ca8003d2287564eefe8e9b12f854
FILE "Noddy's Magic Adventure (Europe) (En,Fr).bin" BINARY
  TRACK 01 MODE2/2352
    INDEX 01 00:00:00
  TRACK 02 AUDIO
    INDEX 00 32:54:27
    INDEX 01 32:56:27
  TRACK 03 AUDIO
    INDEX 00 34:12:39
    INDEX 01 34:14:39
  TRACK 04 AUDIO
    INDEX 00 36:11:07
    INDEX 01 36:13:07
  TRACK 05 AUDIO
    INDEX 00 38:11:17
    INDEX 01 38:13:17
  TRACK 06 AUDIO
    INDEX 00 41:03:63
    INDEX 01 41:05:63
  TRACK 07 AUDIO
    INDEX 00 42:31:13
    INDEX 01 42:33:13
  TRACK 08 AUDIO
    INDEX 00 44:23:71
    INDEX 01 44:25:71
  TRACK 09 AUDIO
    INDEX 00 44:30:56
    INDEX 01 44:32:56
  TRACK 10 AUDIO
    INDEX 00 44:37:41
    INDEX 01 44:39:41
  TRACK 11 AUDIO
    INDEX 00 44:44:26
    INDEX 01 44:46:26
  TRACK 12 AUDIO
    INDEX 00 44:51:11
    INDEX 01 44:53:11
  TRACK 13 AUDIO
    INDEX 00 44:57:71
    INDEX 01 44:59:71
  TRACK 14 AUDIO
    INDEX 00 45:04:56
    INDEX 01 45:06:56
  TRACK 15 AUDIO
    INDEX 00 45:11:41
    INDEX 01 45:13:41
  TRACK 16 AUDIO
    INDEX 00 45:18:26
    INDEX 01 45:20:26
  TRACK 17 AUDIO
    INDEX 00 45:25:11
    INDEX 01 45:27:11
  TRACK 18 AUDIO
    INDEX 00 45:31:71
    INDEX 01 45:33:71
  TRACK 19 AUDIO
    INDEX 00 45:38:56
    INDEX 01 45:40:56
  TRACK 20 AUDIO
    INDEX 00 45:45:41
    INDEX 01 45:47:41
  TRACK 21 AUDIO
    INDEX 00 45:55:69
    INDEX 01 45:57:69
  TRACK 22 AUDIO
    INDEX 00 46:07:44
    INDEX 01 46:09:44
  TRACK 23 AUDIO
    INDEX 00 46:17:33
    INDEX 01 46:19:33
  TRACK 24 AUDIO
    INDEX 00 46:28:06
    INDEX 01 46:30:06
  TRACK 25 AUDIO
    INDEX 00 46:42:05
    INDEX 01 46:44:05
  TRACK 26 AUDIO
    INDEX 00 46:53:06
    INDEX 01 46:55:06
  TRACK 27 AUDIO
    INDEX 00 47:03:47
    INDEX 01 47:05:47
  TRACK 28 AUDIO
    INDEX 00 47:14:09
    INDEX 01 47:16:09
  TRACK 29 AUDIO
    INDEX 00 47:21:14
    INDEX 01 47:23:14
  TRACK 30 AUDIO
    INDEX 00 47:28:06
    INDEX 01 47:30:06
  TRACK 31 AUDIO
    INDEX 00 47:39:24
    INDEX 01 47:41:24
  TRACK 32 AUDIO
    INDEX 00 47:51:34
    INDEX 01 47:53:34
  TRACK 33 AUDIO
    INDEX 00 47:58:45
    INDEX 01 48:00:45
  TRACK 34 AUDIO
    INDEX 00 48:05:29
    INDEX 01 48:07:29
  TRACK 35 AUDIO
    INDEX 00 48:28:25
    INDEX 01 48:30:25
  TRACK 36 AUDIO
    INDEX 00 48:54:68
    INDEX 01 48:56:68
  TRACK 37 AUDIO
    INDEX 00 49:01:49
    INDEX 01 49:03:49
  TRACK 38 AUDIO
    INDEX 00 49:10:67
    INDEX 01 49:12:67
  TRACK 39 AUDIO
    INDEX 00 49:18:66
    INDEX 01 49:20:66
  TRACK 40 AUDIO
    INDEX 00 49:33:52
    INDEX 01 49:35:52
  TRACK 41 AUDIO
    INDEX 00 49:50:50
    INDEX 01 49:52:50
  TRACK 42 AUDIO
    INDEX 00 49:57:47
    INDEX 01 49:59:47
  TRACK 43 AUDIO
    INDEX 00 50:06:24
    INDEX 01 50:08:24
  TRACK 44 AUDIO
    INDEX 00 50:13:43
    INDEX 01 50:15:43
  TRACK 45 AUDIO
    INDEX 00 50:31:30
    INDEX 01 50:33:30
  TRACK 46 AUDIO
    INDEX 00 50:52:63
    INDEX 01 50:54:63
  TRACK 47 AUDIO
    INDEX 00 51:00:12
    INDEX 01 51:02:12
  TRACK 48 AUDIO
    INDEX 00 51:11:67
    INDEX 01 51:13:67
  TRACK 49 AUDIO
    INDEX 00 51:25:37
    INDEX 01 51:27:37
  TRACK 50 AUDIO
    INDEX 00 51:35:49
    INDEX 01 51:37:49
  TRACK 51 AUDIO
    INDEX 00 51:45:46
    INDEX 01 51:47:46
  TRACK 52 AUDIO
    INDEX 00 51:52:54
    INDEX 01 51:54:54
  TRACK 53 AUDIO
    INDEX 00 52:15:03
    INDEX 01 52:17:03
  TRACK 54 AUDIO
    INDEX 00 52:39:01
    INDEX 01 52:41:01
  TRACK 55 AUDIO
    INDEX 00 52:46:36
    INDEX 01 52:48:36
  TRACK 56 AUDIO
    INDEX 00 52:53:45
    INDEX 01 52:55:45
  TRACK 57 AUDIO
    INDEX 00 53:06:34
    INDEX 01 53:08:34
  TRACK 58 AUDIO
    INDEX 00 53:15:70
    INDEX 01 53:17:70
  TRACK 59 AUDIO
    INDEX 00 53:23:12
    INDEX 01 53:25:12
  TRACK 60 AUDIO
    INDEX 00 53:44:27
    INDEX 01 53:46:27
  TRACK 61 AUDIO
    INDEX 00 54:06:22
    INDEX 01 54:08:22
  TRACK 62 AUDIO
    INDEX 00 54:14:67
    INDEX 01 54:16:67
  TRACK 63 AUDIO
    INDEX 00 54:22:47
    INDEX 01 54:24:47
  TRACK 64 AUDIO
    INDEX 00 54:56:26
    INDEX 01 54:58:26
  TRACK 65 AUDIO
    INDEX 00 55:32:20
    INDEX 01 55:34:20
  TRACK 66 AUDIO
    INDEX 00 55:41:26
    INDEX 01 55:43:26
  TRACK 67 AUDIO
    INDEX 00 55:48:16
    INDEX 01 55:50:16
  TRACK 68 AUDIO
    INDEX 00 55:58:67
    INDEX 01 56:00:67
  TRACK 69 AUDIO
    INDEX 00 56:18:54
    INDEX 01 56:20:54
  TRACK 70 AUDIO
    INDEX 00 56:40:17
    INDEX 01 56:42:17
  TRACK 71 AUDIO
    INDEX 00 56:48:68
    INDEX 01 56:50:68
  TRACK 72 AUDIO
    INDEX 00 56:58:44
    INDEX 01 57:00:44
  TRACK 73 AUDIO
    INDEX 00 57:05:54
    INDEX 01 57:07:54
  TRACK 74 AUDIO
    INDEX 00 57:25:66
    INDEX 01 57:27:66
  TRACK 75 AUDIO
    INDEX 00 57:51:36
    INDEX 01 57:53:36
  TRACK 76 AUDIO
    INDEX 00 58:01:44
    INDEX 01 58:03:44
  TRACK 77 AUDIO
    INDEX 00 58:20:70
    INDEX 01 58:22:70
  TRACK 78 AUDIO
    INDEX 00 58:42:54
    INDEX 01 58:44:54
  TRACK 79 AUDIO
    INDEX 00 58:55:30
    INDEX 01 58:57:30
  TRACK 80 AUDIO
    INDEX 00 59:07:39
    INDEX 01 59:09:39
  TRACK 81 AUDIO
    INDEX 00 59:15:29
    INDEX 01 59:17:29
  TRACK 82 AUDIO
    INDEX 00 59:49:05
    INDEX 01 59:51:05
  TRACK 83 AUDIO
    INDEX 00 60:25:71
    INDEX 01 60:27:71
  TRACK 84 AUDIO
    INDEX 00 60:34:05
    INDEX 01 60:36:05
  TRACK 85 AUDIO
    INDEX 00 60:41:13
    INDEX 01 60:43:13
  TRACK 86 AUDIO
    INDEX 00 60:56:41
    INDEX 01 60:58:41
REM LEADOUT 64:08:41
